<svg width="168" height="69" viewBox="0 0 168 69" fill="none" xmlns="http://www.w3.org/2000/svg">
<path d="M12.2115 40.9061C12.5663 36.6494 13.9569 32.7641 17.1457 29.7586C27.8715 19.6492 43.4427 11.7448 57.2586 6.91523C66.5322 3.67346 82.7155 -0.722181 92.1633 4.21971C102.017 9.3741 81.8472 35.682 78.0918 39.3071C62.4001 54.4546 37.6842 63.6076 16.4147 66.6735C15.2899 66.8356 2.89523 68.8854 2.06907 64.7546C1.49911 61.9048 5.69365 57.1583 7.27736 55.3432C13.3987 48.3272 23.4392 43.387 32.2223 40.8148C39.8553 38.5794 53.4392 34.7329 61.4161 37.2969C66.4279 38.9078 62.6417 42.7529 61.3704 45.8403C60.791 47.2474 64.227 44.7673 65.5736 44.0585C66.6974 43.467 78.6727 36.9794 79.3253 38.3934C80.9018 41.8092 71.4979 52.2741 79.2796 50.2262C83.135 49.2117 95.27 43.3027 95.27 49.8607C95.27 53.3061 107.327 45.4008 108.702 44.6068C111.123 43.2085 118.359 39.2229 115.646 39.901C113.629 40.4053 112.507 41.7266 111.078 43.1905C105.833 48.5629 114.995 45.5429 117.519 44.5611C121.215 43.124 124.677 41.3111 128.256 39.6269C130.755 38.4506 130.309 39.3056 130.814 41.2716C132.278 46.9635 142.926 38.9182 147.399 39.3071C151.082 39.6274 152.459 40.2365 156.399 38.6218C159.424 37.3818 165.534 33.9395 165.947 39.3071C166.367 44.7585 163.115 47.0149 158.592 48.3074" stroke="#404040" stroke-width="3" stroke-linecap="round"/>
</svg>
